<svg xmlns="http://www.w3.org/2000/svg" xmlns:xlink="http://www.w3.org/1999/xlink" width="40" zoomAndPan="magnify" viewBox="0 0 30 30.000001" height="40" preserveAspectRatio="xMidYMid meet" version="1.0"><defs><clipPath id="caa2d1a0c4"><path d="M 0.484375 7 L 11 7 L 11 22 L 0.484375 22 Z M 0.484375 7 " clip-rule="nonzero"/></clipPath><clipPath id="32b958b9f7"><path d="M 0.484375 6 L 11 6 L 11 22 L 0.484375 22 Z M 0.484375 6 " clip-rule="nonzero"/></clipPath><clipPath id="f6729b8c84"><path d="M 19 7 L 29.515625 7 L 29.515625 22 L 19 22 Z M 19 7 " clip-rule="nonzero"/></clipPath><clipPath id="a025fdd3f7"><path d="M 19 6 L 29.515625 6 L 29.515625 22 L 19 22 Z M 19 6 " clip-rule="nonzero"/></clipPath><clipPath id="514fc98138"><path d="M 10 3 L 20 3 L 20 25.402344 L 10 25.402344 Z M 10 3 " clip-rule="nonzero"/></clipPath><clipPath id="e3cfa8ca4a"><path d="M 9 2.902344 L 20 2.902344 L 20 25.402344 L 9 25.402344 Z M 9 2.902344 " clip-rule="nonzero"/></clipPath></defs><g clip-path="url(#caa2d1a0c4)"><path fill="#e87102" d="M 9.644531 21.25 C 9.484375 21.25 9.324219 21.195312 9.199219 21.09375 L 1.082031 14.71875 C 0.90625 14.578125 0.808594 14.375 0.808594 14.152344 C 0.808594 13.933594 0.90625 13.726562 1.082031 13.589844 L 9.199219 7.210938 C 9.324219 7.113281 9.484375 7.058594 9.644531 7.058594 C 9.867188 7.058594 10.074219 7.15625 10.210938 7.332031 C 10.328125 7.484375 10.382812 7.671875 10.359375 7.859375 C 10.335938 8.050781 10.238281 8.222656 10.089844 8.339844 L 2.691406 14.152344 L 10.089844 19.964844 C 10.238281 20.085938 10.335938 20.253906 10.359375 20.445312 C 10.382812 20.636719 10.328125 20.824219 10.210938 20.972656 C 10.074219 21.148438 9.867188 21.25 9.644531 21.25 " fill-opacity="1" fill-rule="nonzero"/></g><g clip-path="url(#32b958b9f7)"><path fill="#090304" d="M 9.644531 6.753906 C 9.414062 6.753906 9.191406 6.828125 9.011719 6.972656 L 0.894531 13.347656 C 0.644531 13.546875 0.5 13.835938 0.5 14.152344 C 0.5 14.46875 0.644531 14.761719 0.894531 14.957031 L 9.011719 21.335938 C 9.191406 21.476562 9.414062 21.554688 9.644531 21.554688 C 9.960938 21.554688 10.253906 21.410156 10.449219 21.164062 C 10.621094 20.949219 10.695312 20.679688 10.664062 20.410156 C 10.628906 20.136719 10.496094 19.894531 10.277344 19.726562 L 3.1875 14.152344 L 10.277344 8.582031 C 10.496094 8.410156 10.628906 8.167969 10.664062 7.898438 C 10.695312 7.625 10.621094 7.359375 10.449219 7.144531 C 10.253906 6.894531 9.960938 6.753906 9.644531 6.753906 Z M 9.644531 7.363281 C 9.765625 7.363281 9.886719 7.417969 9.96875 7.519531 C 10.109375 7.699219 10.078125 7.960938 9.902344 8.101562 L 2.195312 14.152344 L 9.902344 20.207031 C 10.078125 20.347656 10.109375 20.605469 9.96875 20.785156 C 9.886719 20.886719 9.765625 20.941406 9.644531 20.941406 C 9.554688 20.941406 9.464844 20.914062 9.390625 20.855469 L 1.269531 14.476562 C 1.171875 14.398438 1.113281 14.277344 1.113281 14.152344 C 1.113281 14.027344 1.171875 13.90625 1.269531 13.828125 L 9.390625 7.453125 C 9.464844 7.390625 9.554688 7.363281 9.644531 7.363281 " fill-opacity="1" fill-rule="nonzero"/></g><g clip-path="url(#f6729b8c84)"><path fill="#e87102" d="M 20.355469 21.25 C 20.132812 21.25 19.929688 21.148438 19.789062 20.972656 C 19.542969 20.664062 19.597656 20.210938 19.910156 19.964844 L 27.308594 14.152344 L 19.910156 8.339844 C 19.597656 8.09375 19.542969 7.644531 19.789062 7.332031 C 19.929688 7.15625 20.132812 7.058594 20.355469 7.058594 C 20.515625 7.058594 20.675781 7.113281 20.800781 7.210938 L 28.917969 13.589844 C 29.09375 13.726562 29.191406 13.933594 29.191406 14.152344 C 29.191406 14.375 29.09375 14.578125 28.917969 14.71875 L 20.800781 21.09375 C 20.675781 21.195312 20.515625 21.25 20.355469 21.25 " fill-opacity="1" fill-rule="nonzero"/></g><g clip-path="url(#a025fdd3f7)"><path fill="#090304" d="M 20.355469 6.753906 C 20.039062 6.753906 19.746094 6.894531 19.550781 7.144531 C 19.199219 7.585938 19.277344 8.230469 19.722656 8.582031 L 26.8125 14.152344 L 19.722656 19.726562 C 19.277344 20.074219 19.199219 20.71875 19.550781 21.164062 C 19.746094 21.410156 20.039062 21.554688 20.355469 21.554688 C 20.585938 21.554688 20.808594 21.476562 20.988281 21.335938 L 29.105469 14.957031 C 29.355469 14.761719 29.496094 14.46875 29.496094 14.152344 C 29.496094 13.835938 29.355469 13.546875 29.109375 13.347656 L 20.988281 6.972656 C 20.808594 6.828125 20.585938 6.753906 20.355469 6.753906 Z M 20.355469 7.363281 C 20.445312 7.363281 20.535156 7.390625 20.609375 7.453125 L 28.730469 13.828125 C 28.828125 13.90625 28.886719 14.027344 28.886719 14.152344 C 28.886719 14.277344 28.828125 14.398438 28.730469 14.476562 L 20.609375 20.855469 C 20.535156 20.914062 20.445312 20.941406 20.355469 20.941406 C 20.234375 20.941406 20.113281 20.886719 20.03125 20.785156 C 19.890625 20.605469 19.921875 20.347656 20.097656 20.207031 L 27.804688 14.152344 L 20.097656 8.101562 C 19.921875 7.960938 19.890625 7.699219 20.03125 7.519531 C 20.113281 7.417969 20.234375 7.363281 20.355469 7.363281 " fill-opacity="1" fill-rule="nonzero"/></g><g clip-path="url(#514fc98138)"><path fill="#e87102" d="M 10.964844 25.097656 C 10.875 25.097656 10.789062 25.078125 10.707031 25.046875 C 10.527344 24.976562 10.386719 24.84375 10.308594 24.667969 C 10.230469 24.492188 10.226562 24.296875 10.292969 24.121094 L 18.222656 3.667969 C 18.328125 3.394531 18.597656 3.210938 18.894531 3.210938 C 18.984375 3.210938 19.070312 3.226562 19.152344 3.257812 C 19.523438 3.402344 19.707031 3.820312 19.5625 4.1875 L 11.636719 24.636719 C 11.53125 24.910156 11.261719 25.097656 10.964844 25.097656 " fill-opacity="1" fill-rule="nonzero"/></g><g clip-path="url(#e3cfa8ca4a)"><path fill="#090304" d="M 18.894531 2.90625 C 18.472656 2.90625 18.089844 3.167969 17.9375 3.558594 L 10.007812 24.007812 C 9.910156 24.261719 9.917969 24.542969 10.027344 24.792969 C 10.140625 25.042969 10.339844 25.234375 10.597656 25.332031 C 10.714844 25.378906 10.839844 25.402344 10.964844 25.402344 C 11.386719 25.402344 11.769531 25.140625 11.921875 24.746094 L 19.851562 4.296875 C 20.054688 3.769531 19.789062 3.175781 19.261719 2.972656 C 19.144531 2.925781 19.019531 2.90625 18.894531 2.90625 Z M 18.894531 3.515625 C 18.945312 3.515625 18.992188 3.527344 19.042969 3.542969 C 19.253906 3.625 19.359375 3.863281 19.277344 4.078125 L 11.351562 24.527344 C 11.289062 24.691406 11.132812 24.789062 10.964844 24.789062 C 10.914062 24.789062 10.867188 24.78125 10.816406 24.761719 C 10.601562 24.679688 10.5 24.441406 10.582031 24.230469 L 18.507812 3.78125 C 18.574219 3.617188 18.726562 3.515625 18.894531 3.515625 " fill-opacity="1" fill-rule="nonzero"/></g></svg>